<svg xmlns="http://www.w3.org/2000/svg" viewBox="0 0 100 100" fill="none" stroke="#c9a84c" stroke-width="1.4">
  <g>
    <ellipse cx="50" cy="22" rx="6" ry="16" transform="rotate(0 50 50)"/>
    <ellipse cx="50" cy="22" rx="6" ry="16" transform="rotate(60 50 50)"/>
    <ellipse cx="50" cy="22" rx="6" ry="16" transform="rotate(120 50 50)"/>
    <ellipse cx="50" cy="22" rx="6" ry="16" transform="rotate(180 50 50)"/>
    <ellipse cx="50" cy="22" rx="6" ry="16" transform="rotate(240 50 50)"/>
    <ellipse cx="50" cy="22" rx="6" ry="16" transform="rotate(300 50 50)"/>
  </g>
  <g>
    <ellipse cx="50" cy="31" rx="4" ry="11" transform="rotate(30 50 50)"/>
    <ellipse cx="50" cy="31" rx="4" ry="11" transform="rotate(90 50 50)"/>
    <ellipse cx="50" cy="31" rx="4" ry="11" transform="rotate(150 50 50)"/>
    <ellipse cx="50" cy="31" rx="4" ry="11" transform="rotate(210 50 50)"/>
    <ellipse cx="50" cy="31" rx="4" ry="11" transform="rotate(270 50 50)"/>
    <ellipse cx="50" cy="31" rx="4" ry="11" transform="rotate(330 50 50)"/>
  </g>
  <circle cx="50" cy="50" r="3.5"/>
</svg>
