<svg xmlns="http://www.w3.org/2000/svg" viewBox="0 0 100 100">
  <rect width="100" height="100" rx="22" fill="#1a2a1c"/>
  <!-- Golden arch, open at bottom -->
  <path d="M 24 76 A 34 34 0 1 1 76 76"
        fill="none" stroke="#c9a84c" stroke-width="2.2" stroke-linecap="round"/>
  <!-- Mountain silhouettes at base -->
  <path d="M 24 76 L 35 63 L 44 69 L 50 58 L 56 66 L 65 61 L 76 76 Z"
        fill="#c9a84c" opacity="0.22"/>
  <!-- Olive leaf detail, lower right -->
  <path d="M 68 72 Q 76 64 82 66 Q 78 75 68 72 Z" fill="#c9a84c" opacity="0.7"/>
  <path d="M 71 77 Q 80 71 84 74 Q 79 83 71 77 Z" fill="#c9a84c" opacity="0.55"/>
  <line x1="74" y1="75" x2="82" y2="68" stroke="#c9a84c" stroke-width="1" stroke-linecap="round" opacity="0.55"/>
  <!-- 4-pointed stars -->
  <path d="M 32 25 L 33.5 21 L 35 25 L 39 26.5 L 35 28 L 33.5 32 L 32 28 L 28 26.5 Z" fill="#c9a84c"/>
  <path d="M 67 31 L 68 28.5 L 69 31 L 71.5 32 L 69 33 L 68 35.5 L 67 33 L 64.5 32 Z" fill="#c9a84c" opacity="0.75"/>
  <!-- Female hiker silhouette, facing right, walking uphill -->
  <circle cx="54" cy="28" r="5.5" fill="#c9a84c"/>
  <path d="M 50 24 Q 43 20 45 27 Q 46 31 50 29" fill="#c9a84c"/>
  <path d="M 54 33 L 52 48" stroke="#c9a84c" stroke-width="4.5" stroke-linecap="round" fill="none"/>
  <path d="M 50 37 Q 43 40 44 48 Q 44 54 50 54"
        fill="none" stroke="#c9a84c" stroke-width="3.5" stroke-linecap="round"/>
  <path d="M 53 40 L 61 50" stroke="#c9a84c" stroke-width="3" stroke-linecap="round" fill="none"/>
  <path d="M 52 40 L 47 44" stroke="#c9a84c" stroke-width="2.5" stroke-linecap="round" fill="none"/>
  <path d="M 52 48 L 57 62" stroke="#c9a84c" stroke-width="4" stroke-linecap="round" fill="none"/>
  <path d="M 52 48 L 47 61" stroke="#c9a84c" stroke-width="3.5" stroke-linecap="round" fill="none"/>
  <path d="M 57 62 L 61 64" stroke="#c9a84c" stroke-width="3.5" stroke-linecap="round" fill="none"/>
  <path d="M 47 61 L 44 61" stroke="#c9a84c" stroke-width="3" stroke-linecap="round" fill="none"/>
  <path d="M 61 50 L 67 68" stroke="#c9a84c" stroke-width="1.8" stroke-linecap="round" fill="none"/>
</svg>
